<mxfile host="app.diagrams.net" modified="2021-09-08T09:34:31.426Z" agent="5.0 (Windows NT 10.0; Win64; x64) AppleWebKit/537.36 (KHTML, like Gecko) Chrome/93.0.4577.63 Safari/537.36" etag="UJXLJFVVJDaYMfOZavSM" version="15.1.0" type="github">
  <diagram id="lzIewVebXne83JjptTqD" name="Page-1">
    <mxGraphModel dx="2048" dy="575" grid="1" gridSize="10" guides="1" tooltips="1" connect="1" arrows="1" fold="1" page="1" pageScale="1" pageWidth="827" pageHeight="1169" math="0" shadow="0">
      <root>
        <mxCell id="0" />
        <mxCell id="1" parent="0" />
        <mxCell id="TCTqFbjVpFXrMC-fsxYL-8" style="edgeStyle=orthogonalEdgeStyle;rounded=0;orthogonalLoop=1;jettySize=auto;html=1;exitX=1;exitY=0.5;exitDx=0;exitDy=0;entryX=0;entryY=0.5;entryDx=0;entryDy=0;fontFamily=Times New Roman;fontSize=14;" edge="1" parent="1" source="TCTqFbjVpFXrMC-fsxYL-1" target="TCTqFbjVpFXrMC-fsxYL-5">
          <mxGeometry relative="1" as="geometry" />
        </mxCell>
        <mxCell id="TCTqFbjVpFXrMC-fsxYL-1" value="updateReactionStatus()" style="rounded=1;whiteSpace=wrap;html=1;fontFamily=Times New Roman;fontSize=14;fillColor=#f5f5f5;fontColor=#333333;strokeColor=#990099;" vertex="1" parent="1">
          <mxGeometry x="230" y="210" width="240" height="30" as="geometry" />
        </mxCell>
        <mxCell id="TCTqFbjVpFXrMC-fsxYL-4" style="edgeStyle=orthogonalEdgeStyle;rounded=0;orthogonalLoop=1;jettySize=auto;html=1;exitX=0.5;exitY=1;exitDx=0;exitDy=0;entryX=0.5;entryY=0;entryDx=0;entryDy=0;fontFamily=Times New Roman;fontSize=14;" edge="1" parent="1" source="TCTqFbjVpFXrMC-fsxYL-3" target="TCTqFbjVpFXrMC-fsxYL-1">
          <mxGeometry relative="1" as="geometry" />
        </mxCell>
        <mxCell id="TCTqFbjVpFXrMC-fsxYL-3" value="onParsingReactionStatus()" style="rounded=1;whiteSpace=wrap;html=1;fontFamily=Times New Roman;fontSize=14;fillColor=#f5f5f5;fontColor=#333333;strokeColor=#990099;" vertex="1" parent="1">
          <mxGeometry x="230" y="150" width="240" height="30" as="geometry" />
        </mxCell>
        <mxCell id="TCTqFbjVpFXrMC-fsxYL-5" value="updateReactionStatus()" style="rounded=1;whiteSpace=wrap;html=1;fontFamily=Times New Roman;fontSize=14;fillColor=#fff2cc;strokeColor=#d6b656;" vertex="1" parent="1">
          <mxGeometry x="570" y="210" width="240" height="30" as="geometry" />
        </mxCell>
        <mxCell id="TCTqFbjVpFXrMC-fsxYL-6" value="ReactionModel" style="text;html=1;strokeColor=none;fillColor=none;align=center;verticalAlign=middle;whiteSpace=wrap;rounded=0;fontFamily=Times New Roman;fontSize=14;" vertex="1" parent="1">
          <mxGeometry x="670" y="30" width="40" height="20" as="geometry" />
        </mxCell>
        <mxCell id="TCTqFbjVpFXrMC-fsxYL-7" value="ServiceManager" style="text;html=1;strokeColor=none;fillColor=none;align=center;verticalAlign=middle;whiteSpace=wrap;rounded=0;fontFamily=Times New Roman;fontSize=14;" vertex="1" parent="1">
          <mxGeometry x="330" y="30" width="40" height="20" as="geometry" />
        </mxCell>
        <mxCell id="TCTqFbjVpFXrMC-fsxYL-11" style="edgeStyle=orthogonalEdgeStyle;rounded=0;orthogonalLoop=1;jettySize=auto;html=1;exitX=1;exitY=0.5;exitDx=0;exitDy=0;entryX=0;entryY=0.5;entryDx=0;entryDy=0;fontFamily=Times New Roman;fontSize=14;" edge="1" parent="1" source="TCTqFbjVpFXrMC-fsxYL-9" target="TCTqFbjVpFXrMC-fsxYL-3">
          <mxGeometry relative="1" as="geometry" />
        </mxCell>
        <mxCell id="TCTqFbjVpFXrMC-fsxYL-9" value="onParsingReactionStatus()" style="rounded=1;whiteSpace=wrap;html=1;fontFamily=Times New Roman;fontSize=14;fillColor=#e3c800;strokeColor=#B09500;fontColor=#000000;" vertex="1" parent="1">
          <mxGeometry x="-100" y="150" width="240" height="30" as="geometry" />
        </mxCell>
        <mxCell id="TCTqFbjVpFXrMC-fsxYL-10" value="ConfAgent" style="text;html=1;strokeColor=none;fillColor=none;align=center;verticalAlign=middle;whiteSpace=wrap;rounded=0;fontFamily=Times New Roman;fontSize=14;" vertex="1" parent="1">
          <mxGeometry y="30" width="40" height="20" as="geometry" />
        </mxCell>
        <mxCell id="TCTqFbjVpFXrMC-fsxYL-15" style="edgeStyle=orthogonalEdgeStyle;rounded=0;orthogonalLoop=1;jettySize=auto;html=1;exitX=0.5;exitY=1;exitDx=0;exitDy=0;fontFamily=Times New Roman;fontSize=14;" edge="1" parent="1" source="TCTqFbjVpFXrMC-fsxYL-13" target="TCTqFbjVpFXrMC-fsxYL-14">
          <mxGeometry relative="1" as="geometry" />
        </mxCell>
        <mxCell id="TCTqFbjVpFXrMC-fsxYL-13" value="notifyReceiveReaction()" style="rounded=1;whiteSpace=wrap;html=1;fontFamily=Times New Roman;fontSize=14;fillColor=#fff2cc;strokeColor=#d6b656;" vertex="1" parent="1">
          <mxGeometry x="570" y="470" width="240" height="30" as="geometry" />
        </mxCell>
        <mxCell id="TCTqFbjVpFXrMC-fsxYL-14" value="receiveReaction()" style="rounded=1;whiteSpace=wrap;html=1;fontFamily=Times New Roman;fontSize=14;fillColor=#fff2cc;strokeColor=#d6b656;" vertex="1" parent="1">
          <mxGeometry x="570" y="530" width="240" height="30" as="geometry" />
        </mxCell>
        <mxCell id="TCTqFbjVpFXrMC-fsxYL-17" style="edgeStyle=orthogonalEdgeStyle;rounded=0;orthogonalLoop=1;jettySize=auto;html=1;exitX=0.5;exitY=1;exitDx=0;exitDy=0;fontFamily=Times New Roman;fontSize=14;" edge="1" parent="1" source="TCTqFbjVpFXrMC-fsxYL-16" target="TCTqFbjVpFXrMC-fsxYL-13">
          <mxGeometry relative="1" as="geometry" />
        </mxCell>
        <mxCell id="TCTqFbjVpFXrMC-fsxYL-16" value="noReactionReceived()" style="rounded=1;whiteSpace=wrap;html=1;fontFamily=Times New Roman;fontSize=14;fillColor=#fff2cc;strokeColor=#d6b656;" vertex="1" parent="1">
          <mxGeometry x="570" y="410" width="240" height="30" as="geometry" />
        </mxCell>
        <mxCell id="TCTqFbjVpFXrMC-fsxYL-19" style="edgeStyle=orthogonalEdgeStyle;rounded=0;orthogonalLoop=1;jettySize=auto;html=1;exitX=1;exitY=0.5;exitDx=0;exitDy=0;entryX=0;entryY=0.5;entryDx=0;entryDy=0;fontFamily=Times New Roman;fontSize=14;" edge="1" parent="1" source="TCTqFbjVpFXrMC-fsxYL-18" target="TCTqFbjVpFXrMC-fsxYL-16">
          <mxGeometry relative="1" as="geometry" />
        </mxCell>
        <mxCell id="TCTqFbjVpFXrMC-fsxYL-18" value="on_data_indication()" style="rounded=1;whiteSpace=wrap;html=1;fontFamily=Times New Roman;fontSize=14;fillColor=#b0e3e6;strokeColor=#0e8088;" vertex="1" parent="1">
          <mxGeometry x="230" y="410" width="240" height="30" as="geometry" />
        </mxCell>
        <mxCell id="TCTqFbjVpFXrMC-fsxYL-21" style="edgeStyle=orthogonalEdgeStyle;rounded=0;orthogonalLoop=1;jettySize=auto;html=1;exitX=1;exitY=0.5;exitDx=0;exitDy=0;fontFamily=Times New Roman;fontSize=14;" edge="1" parent="1" source="TCTqFbjVpFXrMC-fsxYL-20" target="TCTqFbjVpFXrMC-fsxYL-18">
          <mxGeometry relative="1" as="geometry" />
        </mxCell>
        <mxCell id="TCTqFbjVpFXrMC-fsxYL-20" value="GCC_Ape.on_send_data_indication()" style="rounded=1;whiteSpace=wrap;html=1;fontFamily=Times New Roman;fontSize=14;fillColor=#b0e3e6;strokeColor=#0e8088;" vertex="1" parent="1">
          <mxGeometry x="-490" y="410" width="240" height="30" as="geometry" />
        </mxCell>
        <mxCell id="TCTqFbjVpFXrMC-fsxYL-24" style="edgeStyle=orthogonalEdgeStyle;rounded=0;orthogonalLoop=1;jettySize=auto;html=1;exitX=0.5;exitY=1;exitDx=0;exitDy=0;entryX=0.5;entryY=0;entryDx=0;entryDy=0;fontFamily=Times New Roman;fontSize=14;" edge="1" parent="1" source="TCTqFbjVpFXrMC-fsxYL-22" target="TCTqFbjVpFXrMC-fsxYL-9">
          <mxGeometry relative="1" as="geometry" />
        </mxCell>
        <mxCell id="TCTqFbjVpFXrMC-fsxYL-22" value="parseConfStatus()" style="rounded=1;whiteSpace=wrap;html=1;fontFamily=Times New Roman;fontSize=14;" vertex="1" parent="1">
          <mxGeometry x="-100" y="90" width="240" height="30" as="geometry" />
        </mxCell>
        <mxCell id="TCTqFbjVpFXrMC-fsxYL-25" style="edgeStyle=orthogonalEdgeStyle;rounded=0;orthogonalLoop=1;jettySize=auto;html=1;exitX=0.5;exitY=0;exitDx=0;exitDy=0;entryX=0.5;entryY=1;entryDx=0;entryDy=0;fontFamily=Times New Roman;fontSize=14;" edge="1" parent="1" source="TCTqFbjVpFXrMC-fsxYL-23" target="TCTqFbjVpFXrMC-fsxYL-9">
          <mxGeometry relative="1" as="geometry" />
        </mxCell>
        <mxCell id="TCTqFbjVpFXrMC-fsxYL-23" value="handleConfStatus()" style="rounded=1;whiteSpace=wrap;html=1;fontFamily=Times New Roman;fontSize=14;fillColor=#e3c800;strokeColor=#B09500;fontColor=#000000;" vertex="1" parent="1">
          <mxGeometry x="-100" y="210" width="240" height="30" as="geometry" />
        </mxCell>
        <mxCell id="TCTqFbjVpFXrMC-fsxYL-30" style="edgeStyle=orthogonalEdgeStyle;rounded=0;orthogonalLoop=1;jettySize=auto;html=1;exitX=1;exitY=0.5;exitDx=0;exitDy=0;entryX=0;entryY=0.5;entryDx=0;entryDy=0;fontFamily=Times New Roman;fontSize=14;" edge="1" parent="1" source="TCTqFbjVpFXrMC-fsxYL-26" target="TCTqFbjVpFXrMC-fsxYL-23">
          <mxGeometry relative="1" as="geometry" />
        </mxCell>
        <mxCell id="TCTqFbjVpFXrMC-fsxYL-26" value="handleConferenceResource()" style="rounded=1;whiteSpace=wrap;html=1;fontFamily=Times New Roman;fontSize=14;fillColor=#e3c800;strokeColor=#B09500;fontColor=#000000;" vertex="1" parent="1">
          <mxGeometry x="-380" y="150" width="240" height="30" as="geometry" />
        </mxCell>
        <mxCell id="TCTqFbjVpFXrMC-fsxYL-28" style="edgeStyle=orthogonalEdgeStyle;rounded=0;orthogonalLoop=1;jettySize=auto;html=1;exitX=1;exitY=0.5;exitDx=0;exitDy=0;entryX=0;entryY=0.5;entryDx=0;entryDy=0;fontFamily=Times New Roman;fontSize=14;" edge="1" parent="1" source="TCTqFbjVpFXrMC-fsxYL-27" target="TCTqFbjVpFXrMC-fsxYL-23">
          <mxGeometry relative="1" as="geometry" />
        </mxCell>
        <mxCell id="TCTqFbjVpFXrMC-fsxYL-27" value="on_conference_parameter_change_indication" style="rounded=1;whiteSpace=wrap;html=1;fontFamily=Times New Roman;fontSize=14;fillColor=#e3c800;strokeColor=#B09500;fontColor=#000000;" vertex="1" parent="1">
          <mxGeometry x="-400" y="270" width="260" height="30" as="geometry" />
        </mxCell>
        <mxCell id="TCTqFbjVpFXrMC-fsxYL-33" style="edgeStyle=orthogonalEdgeStyle;rounded=0;orthogonalLoop=1;jettySize=auto;html=1;exitX=1;exitY=0.5;exitDx=0;exitDy=0;entryX=0;entryY=0.5;entryDx=0;entryDy=0;fontFamily=Times New Roman;fontSize=14;" edge="1" parent="1" source="TCTqFbjVpFXrMC-fsxYL-31" target="TCTqFbjVpFXrMC-fsxYL-26">
          <mxGeometry relative="1" as="geometry" />
        </mxCell>
        <mxCell id="TCTqFbjVpFXrMC-fsxYL-31" value="on_conference_create_confirm()" style="rounded=1;whiteSpace=wrap;html=1;fontFamily=Times New Roman;fontSize=14;fillColor=#e3c800;strokeColor=#B09500;fontColor=#000000;" vertex="1" parent="1">
          <mxGeometry x="-670" y="110" width="240" height="30" as="geometry" />
        </mxCell>
        <mxCell id="TCTqFbjVpFXrMC-fsxYL-34" style="edgeStyle=orthogonalEdgeStyle;rounded=0;orthogonalLoop=1;jettySize=auto;html=1;exitX=1;exitY=0.5;exitDx=0;exitDy=0;entryX=0;entryY=0.5;entryDx=0;entryDy=0;fontFamily=Times New Roman;fontSize=14;" edge="1" parent="1" source="TCTqFbjVpFXrMC-fsxYL-32" target="TCTqFbjVpFXrMC-fsxYL-26">
          <mxGeometry relative="1" as="geometry" />
        </mxCell>
        <mxCell id="TCTqFbjVpFXrMC-fsxYL-32" value="on_conference_join_confirm()" style="rounded=1;whiteSpace=wrap;html=1;fontFamily=Times New Roman;fontSize=14;fillColor=#e3c800;strokeColor=#B09500;fontColor=#000000;" vertex="1" parent="1">
          <mxGeometry x="-670" y="190" width="240" height="30" as="geometry" />
        </mxCell>
        <mxCell id="TCTqFbjVpFXrMC-fsxYL-36" style="edgeStyle=orthogonalEdgeStyle;rounded=0;orthogonalLoop=1;jettySize=auto;html=1;exitX=1;exitY=0.5;exitDx=0;exitDy=0;fontFamily=Times New Roman;fontSize=14;" edge="1" parent="1" source="TCTqFbjVpFXrMC-fsxYL-35" target="TCTqFbjVpFXrMC-fsxYL-27">
          <mxGeometry relative="1" as="geometry" />
        </mxCell>
        <mxCell id="TCTqFbjVpFXrMC-fsxYL-35" value="GCC_Conference.handle_rrsin()" style="rounded=1;whiteSpace=wrap;html=1;fontFamily=Times New Roman;fontSize=14;fillColor=#fad7ac;strokeColor=#b46504;" vertex="1" parent="1">
          <mxGeometry x="-827" y="270" width="260" height="30" as="geometry" />
        </mxCell>
        <mxCell id="TCTqFbjVpFXrMC-fsxYL-38" value="send_reaction_action_request()" style="rounded=1;whiteSpace=wrap;html=1;fontFamily=Times New Roman;fontSize=14;fillColor=#e3c800;strokeColor=#B09500;fontColor=#000000;" vertex="1" parent="1">
          <mxGeometry x="-100" y="620" width="240" height="30" as="geometry" />
        </mxCell>
        <mxCell id="TCTqFbjVpFXrMC-fsxYL-40" style="edgeStyle=orthogonalEdgeStyle;rounded=0;orthogonalLoop=1;jettySize=auto;html=1;exitX=0;exitY=0.5;exitDx=0;exitDy=0;entryX=1;entryY=0.5;entryDx=0;entryDy=0;fontFamily=Times New Roman;fontSize=14;" edge="1" parent="1" source="TCTqFbjVpFXrMC-fsxYL-39" target="TCTqFbjVpFXrMC-fsxYL-38">
          <mxGeometry relative="1" as="geometry" />
        </mxCell>
        <mxCell id="TCTqFbjVpFXrMC-fsxYL-39" value="switchReaction()" style="rounded=1;whiteSpace=wrap;html=1;fontFamily=Times New Roman;fontSize=14;fillColor=#f5f5f5;fontColor=#333333;strokeColor=#990099;" vertex="1" parent="1">
          <mxGeometry x="230" y="620" width="240" height="30" as="geometry" />
        </mxCell>
        <mxCell id="TCTqFbjVpFXrMC-fsxYL-42" style="edgeStyle=orthogonalEdgeStyle;rounded=0;orthogonalLoop=1;jettySize=auto;html=1;exitX=1;exitY=0.5;exitDx=0;exitDy=0;entryX=0.5;entryY=0;entryDx=0;entryDy=0;fontFamily=Times New Roman;fontSize=14;" edge="1" parent="1" source="TCTqFbjVpFXrMC-fsxYL-41" target="TCTqFbjVpFXrMC-fsxYL-39">
          <mxGeometry relative="1" as="geometry" />
        </mxCell>
        <mxCell id="TCTqFbjVpFXrMC-fsxYL-41" value="DialogMeetingPriv.ktswitchReactions()" style="rounded=1;whiteSpace=wrap;html=1;fontFamily=Times New Roman;fontSize=14;fillColor=#e3c800;strokeColor=#B09500;fontColor=#000000;" vertex="1" parent="1">
          <mxGeometry x="-490" y="540" width="240" height="30" as="geometry" />
        </mxCell>
      </root>
    </mxGraphModel>
  </diagram>
</mxfile>
